<?xml version="1.0" encoding="UTF-8" standalone="no"?>
<svg fill="#000"
        xmlns="http://www.w3.org/2000/svg"
        xmlns:xlink="http://www.w3.org/1999/xlink"
        xmlns:sodipodi="http://sodipodi.sourceforge.net/DTD/sodipodi-0.dtd"
        xmlns:inkscape="http://www.inkscape.org/namespaces/inkscape"
        width="1151"
        height="126" viewBox="0 0 1151 126">
  <!-- Created with Method Draw - http://github.com/duopixel/Method-Draw/ -->
    <defs id="defs44">
        <clipPath
                clipPathUnits="userSpaceOnUse"
                id="clipPath1323">
            <path
                    id="path1325"
                    style="fill-opacity:0;fill-rule:nonzero;stroke:none"
                    d="m 393.74219,270.91406 v 15.47656 c 0.0208,3e-5 0.0417,0 0.0625,0 0.0123,1.6e-4 0.0225,8e-5 0.0332,0 h 0.002 c 10e-4,0 0.003,10e-6 0.004,0 h 0.002 c 0.004,0.002 0.0103,0.004 0.0137,0.008 0.006,0.006 0.004,0.019 0.004,0.0273 -1.9e-4,0.003 4e-5,0.0143 0,0.0176 2e-5,0.002 -2e-5,0.005 0,0.008 0.007,0.003 0.0136,0.008 0.0234,0.008 0.007,0 -0.002,-0.005 -0.006,-0.008 0.0125,0.004 0.0277,0.007 0.0391,0.0117 0.008,0.003 0.0139,0.004 0.0215,0.008 l 0.002,0.002 c 0.001,6.9e-4 0.003,8e-4 0.004,0.002 v -0.002 c 9.8e-4,5.1e-4 0.005,0.002 0.004,0.002 -0.003,-10e-4 -0.003,4.2e-4 -0.004,0 0.004,0.002 0.007,0.004 0.01,0.006 0.001,6.5e-4 0.003,8e-4 0.004,0.002 0.011,-0.003 0.022,-0.006 0.0332,-0.008 0.01,-10e-4 0.0135,-0.003 0.0215,-0.004 8.9e-4,-2.7e-4 0.003,2.2e-4 0.004,0 0.003,-4.9e-4 0.005,-0.003 0.008,-0.004 -7.1e-4,-7.1e-4 0.0107,-6.8e-4 0.0117,-0.002 7.9e-4,-7e-4 0.004,-6e-4 0.006,-0.002 0.005,-0.002 0.006,-0.003 0.008,-0.004 h 0.002 c 2.3e-4,-0.001 6.4e-4,-0.003 0.002,-0.004 0.007,-0.006 0.0101,-0.0126 0.0137,-0.0195 0,-0.008 0.009,-0.0225 0.0117,-0.0293 2.6e-4,-0.003 0.005,-0.006 0.006,-0.01 0.001,-0.003 6.3e-4,-0.007 0.002,-0.01 0.003,-0.0175 0.005,-0.0353 0.008,-0.0527 3.7e-4,-0.003 -4.7e-4,-0.005 0,-0.008 8e-4,0.001 6.3e-4,0.003 0.002,0.004 0.001,-0.007 1.1e-4,-0.0121 0.004,-0.0176 0,-0.003 0.005,-0.008 0.008,-0.006 0.003,0.002 0.003,0.006 0.006,0.008 0,0.006 0.003,0.0104 0.006,0.0156 5.1e-4,-0.003 0.002,-0.007 0.002,-0.01 0.0173,0.0133 0.0304,0.0229 0.0449,0.0449 0.0253,0.044 0.0437,0.0906 0.0664,0.13672 0.004,0.011 0.0118,0.0222 0.0156,0.0332 0.0113,0.0312 0.016,0.0416 0.0273,0.0703 0.001,0.0102 0.003,0.0208 0.004,0.0312 2.2e-4,0.006 -6.2e-4,0.0115 -0.002,0.0176 -0.004,0.0173 -0.004,0.029 -0.0156,0.043 0,0.003 -0.005,0.007 -0.008,0.01 -0.004,0.003 -0.0118,0.005 -0.0156,0.008 -0.004,0.002 -0.008,0.002 -0.0117,0.004 -0.0117,0.005 -0.0258,0.0158 -0.0371,0.0215 -0.017,0.009 -0.0239,0.0151 -0.0391,0.0234 -0.0136,0.0144 -0.0372,0.0319 -0.041,0.0527 -0.001,0.006 -0.002,0.0111 -0.002,0.0176 -0.008,0.0266 -0.0142,0.0422 -0.0293,0.0645 -0.004,0.005 -0.008,0.008 -0.0117,0.0117 -0.0113,0.0117 -0.0199,0.0135 -0.0312,0.0215 -0.02,0.008 -0.0379,0.0197 -0.0605,0.0234 -0.0151,0.002 -0.0199,6e-4 -0.0312,0.002 -0.0212,-0.004 -0.0417,0.004 -0.0645,0 -0.0445,-0.009 -0.0844,-0.0298 -0.125,-0.0488 v 41.79883 h 61.83985 V 270.914 Z m 0.36133,15.4668 c -10e-5,0.006 -2.7e-4,0.0121 -0.002,0.0176 -3.4e-4,0.006 -0.002,0.01 -0.004,0.0156 0,0.005 -0.003,0.007 -0.004,0.0117 -6.4e-4,0.003 2.6e-4,0.005 0,0.008 -4.5e-4,0.004 -6e-4,0.008 -0.002,0.0117 -4.9e-4,0.002 -6.8e-4,0.006 -0.002,0.008 -0.004,0.0106 -0.012,0.0202 -0.0195,0.0293 -0.004,0.002 -0.005,0.005 -0.008,0.006 -0.006,0.003 -0.0143,0.005 -0.0215,0.008 l -0.002,0.002 c 10e-4,4.2e-4 0.003,1.7e-4 0.006,0 -0.002,9e-4 -0.003,3.1e-4 -0.006,0.002 h -0.002 c -7.7e-4,0.002 -10e-5,0.004 -0.002,0.006 -0.003,0.003 -0.009,0.01 -0.0156,0.0117 0.004,0.002 0.006,0.007 0.01,0.01 0.008,0.005 0.0158,0.008 0.0195,0.0137 0.004,0.003 0.005,0.008 0.008,0.0117 0.007,0.009 0.008,0.0186 0.0117,0.0274 10e-4,0.003 0.003,0.005 0.004,0.008 -1.3e-4,0.002 1.2e-4,0.003 0,0.004 0.002,0.007 0.008,0.0116 0.008,0.0195 -8e-5,0.0121 -0.002,0.0233 -0.002,0.0351 0,0.002 2.3e-4,0.006 0,0.008 v 0.002 c 1.2e-4,10e-4 8.4e-4,0.003 0.002,0.004 0.002,0.007 0.002,0.01 0,0.0176 -0.004,0.0163 -0.0178,0.0274 -0.0254,0.041 -0.004,0.007 -0.012,0.0154 -0.0195,0.0215 -10e-4,9.9e-4 -0.004,0.003 -0.006,0.004 -0.004,0.006 -0.007,0.0116 -0.0117,0.0176 -0.0419,0.0481 -0.006,0.009 -0.0547,0.0644 -0.004,0.008 -0.012,0.0163 -0.0195,0.0234 -0.011,0.0117 -0.0298,0.0277 -0.0449,0.0371 -0.004,0.003 -0.0118,0.007 -0.0156,0.01 -0.006,0.002 -6.4e-4,-0.006 0,-0.008 0,0.006 -0.006,0.006 -0.01,0.0137 -10e-4,0.001 -0.002,0.003 -0.004,0.004 -0.004,0.002 -0.01,0.005 -0.0137,0.006 -0.004,5e-4 -0.007,-0.002 -0.01,-0.002 v -0.002 c -0.008,0.007 -0.0132,0.006 -0.0195,0.006 0.0157,0.006 0.0323,0.0118 0.041,0.0137 0.02,0.004 0.0436,-0.002 0.0625,0.002 0.008,-4.6e-4 0.0139,-3.7e-4 0.0215,-0.002 0.0174,-0.003 0.0376,-0.0127 0.0527,-0.0195 0.008,-0.005 0.01,-0.007 0.0176,-0.0137 0.004,-0.003 0.007,-0.006 0.01,-0.01 0.004,-0.005 0.008,-0.008 0.0117,-0.0137 0,-0.005 0.01,-0.0248 0.0117,-0.0293 0,-0.0125 -6.4e-4,-0.0181 0.004,-0.0312 0,-0.004 0.002,-0.008 0.004,-0.0117 0.0128,-0.0231 0.0319,-0.042 0.0508,-0.0586 0.0276,-0.016 0.0518,-0.0325 0.082,-0.0469 0.004,-0.003 0.0118,-0.005 0.0156,-0.008 0.006,-0.003 0.008,-0.004 0.01,-0.0117 0.004,-0.0185 0.005,-0.0249 0.002,-0.0449 -0.0113,-0.027 -0.0141,-0.0392 -0.0254,-0.0684 -0.004,-0.011 -0.0118,-0.0205 -0.0156,-0.0312 -0.0204,-0.0441 -0.0418,-0.0885 -0.0645,-0.13086 -0.005,-0.006 -0.01,-0.0116 -0.0137,-0.0176 z m -0.36133,0.0488 v 0.0996 c 0.008,-0.002 0.0152,-0.003 0.0293,-0.006 0.007,-10e-4 0.0144,-0.002 0.0215,-0.004 l 0.002,-0.002 c 0.004,-0.007 0.0108,-0.0131 0.0195,-0.0156 0.002,-0.004 0.004,-0.009 0.006,-0.0137 0.003,-0.009 -6.8e-4,-0.0183 0,-0.0273 1.5e-4,-0.008 3.8e-4,-0.009 0,-0.0176 8e-5,-0.003 -1.1e-4,-0.007 0,-0.01 4e-5,-0.001 -4e-5,-0.003 0,-0.004 -0.0101,1e-5 -0.0215,0 -0.0215,0 -0.0189,-4e-5 -0.0378,1.8e-4 -0.0566,0 z m 0.11914,0.0566 c -3.4e-4,0.003 8.8e-4,0.006 0,0.01 0.005,-0.002 0.0104,-0.002 0.0156,-0.004 -0.004,-10e-4 -0.008,-0.004 -0.0117,-0.006 h -0.002 z m 0.0996,0.0391 c -0.0117,0.003 -0.0234,0.005 -0.0352,0.008 -0.003,0.004 -0.007,0.008 -0.0117,0.0117 l -0.01,0.0117 c 0.003,0.0143 0.005,0.0236 -0.002,0.0273 0.008,-0.002 0.0175,-0.007 0.0195,-0.008 0.0136,-0.003 0.0259,-0.005 0.041,-0.008 0.0189,-0.004 0.0123,-0.003 0.0312,-0.008 0.004,-9.4e-4 0.008,-7.2e-4 0.0117,-0.002 0.003,-3.4e-4 0.006,3.4e-4 0.008,0 -0.003,-0.003 -0.006,-0.007 -0.01,-0.01 0,-0.002 -0.005,-0.004 -0.008,-0.006 -0.0151,-0.009 -0.02,-0.01 -0.0351,-0.0176 z m -0.10547,0.0234 c -0.009,0.002 -0.0183,0.004 -0.0274,0.006 -0.008,0.005 -0.0156,0.01 -0.0234,0.0117 -0.003,10e-4 -0.005,0.003 -0.008,0.004 0.0156,-0.003 0.0312,-0.007 0.0469,-0.01 z m 0.16601,0.0469 c -0.004,6.1e-4 -0.008,6.7e-4 -0.0117,0.002 -0.0189,0.005 -0.0143,0.004 -0.0332,0.008 -0.0208,0.005 -0.0436,0.009 -0.0625,0.0137 -0.004,9.1e-4 -0.008,0.003 -0.0117,0.004 -0.004,5.8e-4 -0.005,-9.3e-4 -0.008,0 0,0.001 -0.005,0.004 -0.008,0.006 -0.004,10e-4 -0.0119,0.003 -0.0156,0.004 -0.01,0.002 -0.0413,0.005 -0.0488,0.006 -0.002,1.3e-4 -0.003,5e-5 -0.004,0 l -0.008,0.008 c -0.0184,0.0167 -0.0302,0.009 -0.0332,-0.004 -0.003,5.8e-4 -0.004,7.5e-4 -0.008,0.002 -0.009,0.002 -0.0182,0.01 -0.0273,0.0117 v 0.18555 c 0.008,-0.002 0.0154,-0.006 0.0234,-0.008 0.0246,-0.006 0.0496,-0.0128 0.0723,-0.0215 -0.004,0.0113 0.0133,-0.0124 0.0156,-0.008 v 0.002 c 0.007,-0.002 0.0128,-0.003 0.0195,-0.006 0.0113,-0.005 0.012,-0.008 0.0195,-0.0137 0.004,-0.005 0.012,-0.0107 0.0195,-0.0156 0.0276,-0.02 0.0536,-0.0409 0.0801,-0.0605 0.004,-0.004 0.0118,-0.008 0.0156,-0.0117 10e-4,-0.002 0.003,-0.004 0.004,-0.006 0.004,-0.009 0.008,-0.0191 0.0117,-0.0293 0.004,-0.0117 0.009,-0.0246 0.0117,-0.0371 0.002,-0.008 0.002,-0.0168 0.002,-0.0254 0,-0.002 -4e-5,-0.004 0,-0.006 -0.0113,9e-5 -7.2e-4,-0.002 -0.0156,0 z m 0.67188,0.18164 h 0.041 0.006 c 0.0386,0 0.0386,0.0391 0,0.0391 h -0.0215 -0.0195 c -0.002,0 -0.003,3e-5 -0.004,0 h -0.002 v 0.002 c -0.008,0.005 -0.006,0.004 -0.0176,0.006 0,6e-5 -0.015,4e-5 -0.0156,0 -0.0113,-8.9e-4 -0.008,-0.002 -0.0274,-0.002 -0.0151,2.9e-4 -0.0258,-8.3e-4 -0.0371,0.004 l -0.002,0.002 c -0.003,0.002 -0.005,0.002 -0.008,0.004 -0.008,0.003 -0.006,0.003 -0.0176,0.004 -0.003,7e-5 -0.005,4e-4 -0.006,0 -7.1e-4,10e-4 -9e-4,0.003 -0.002,0.004 -0.008,4.5e-4 -0.008,-10e-4 -0.01,0 h -0.002 l -0.002,0.002 -0.004,0.004 c -0.004,-7e-5 -0.01,-0.002 -0.0137,0 -0.004,10e-4 0.009,8.2e-4 0.0117,0.004 0.004,0.001 -0.006,9e-4 -0.008,0.002 -0.0133,0.005 -0.0188,0.008 -0.0273,0.006 v 0.002 c -0.003,0.002 -0.006,0.006 -0.01,0.008 -0.004,0.002 -0.006,0.002 -0.01,0.004 -0.0125,0.008 -0.0279,0.0142 -0.043,0.0195 -0.0113,0.004 -0.008,6.3e-4 -0.0195,0.008 -0.004,0.002 -0.005,0.005 -0.008,0.006 -0.0189,0.006 -0.0181,0.005 -0.0332,0.004 -0.0386,-0.002 -0.0341,-0.0519 0.004,-0.0391 0,5.6e-4 0.007,0.002 0.008,0.002 0.004,-10e-4 0.007,-0.004 0.01,-0.006 0.0151,-0.008 0.0121,-0.007 0.0234,-0.0117 0.0147,-0.005 0.0259,-0.01 0.041,-0.0176 0.004,-0.002 0.008,-0.004 0.0117,-0.004 0.008,-0.004 0.01,-0.002 0.008,-0.002 -2.7e-4,7.6e-4 0.004,-0.003 0.006,-0.004 0.004,-0.003 0.008,-0.006 0.0156,-0.008 0.002,-3.8e-4 0.002,0.002 0.004,0.002 0.002,-7.9e-4 0.006,-9e-4 0.008,-0.002 0.008,-0.002 -5e-5,-0.002 0.004,-0.002 5.6e-4,-9.6e-4 0.003,-0.003 0.004,-0.004 0.006,-0.005 0.017,-0.0108 0.0234,-0.01 0.003,-10e-4 0.006,-0.004 0.01,-0.006 v 0.002 h 0.002 c 0,0.006 -10e-5,4.3e-4 0.008,-0.004 0.0163,-0.0103 0.0358,-0.009 0.0547,-0.01 0.0118,9e-5 0.026,2.9e-4 0.0371,0.002 h 0.002 c 0.003,-0.002 0.006,-0.005 0.008,-0.006 0.008,-0.004 0.012,-0.004 0.0195,-0.004 z m -0.11328,0.0312 c -0.009,0.006 -0.0113,0.0165 -0.0156,0.0254 0.005,-0.002 0.0126,-0.003 0.0156,-0.008 0.004,-0.005 0.004,-0.0211 0,-0.0176 z m -0.72852,0.0293 c -0.003,10e-4 0.008,0.008 0.002,0.01 -0.0257,0.009 -0.0517,0.0186 -0.0781,0.0254 -0.006,0.002 -0.0131,0.003 -0.0195,0.004 0.009,0.004 0.0176,0.007 0.0273,0.0117 0.009,0.004 0.0228,0.01 0.0371,0.0156 -0.0153,-0.0107 -0.0194,-0.024 0,-0.0254 v -0.006 c 0.004,-0.002 0.008,-0.004 0.0117,-0.006 0.008,-0.002 0.0326,-0.007 0.0137,0.002 -7.5e-4,0.002 -0.003,0.008 -0.002,0.01 0.004,-0.0121 0.004,-0.0213 0.0195,-0.0234 0.004,-0.002 0.008,-0.006 0.0117,-0.008 10e-4,-9.1e-4 0.002,-0.003 0.004,-0.004 -0.0151,0.006 -0.0102,0.003 -0.0215,0.004 -10e-4,-0.003 -0.004,-0.006 -0.006,-0.01 z m 0.67188,0.0195 c 0.007,-0.003 0.006,0.007 0.008,0.0117 1.8e-4,4.6e-4 0.002,-5e-4 0.002,0 0.004,-0.002 0.008,-0.006 0.0117,-0.008 h 0.002 c 0.0294,-0.007 0.0422,0.0196 0.0117,0.0351 -0.006,0.003 -0.0143,0.007 -0.0215,0.01 -8.8e-4,0.002 -10e-4,0.004 -0.002,0.006 -0.005,0.002 -0.008,0.002 -0.0117,0.004 -0.002,9.8e-4 -0.003,0.003 -0.006,0.004 -0.007,0.005 -0.0152,0.009 -0.0215,0.0117 v 0.002 0.002 c -0.004,0.003 -0.008,0.003 -0.0117,0.006 -8.7e-4,10e-4 -10e-4,0.003 -0.002,0.004 -2.6e-4,3.1e-4 -0.002,-3e-4 -0.002,0 -0.003,0.004 -0.005,0.008 -0.008,0.0117 -0.004,0.005 -0.008,0.01 -0.0117,0.0137 -0.004,0.003 -0.008,0.005 -0.0117,0.008 -0.004,0.005 -0.01,0.008 -0.0176,0.0117 -0.006,0.004 0.002,4.9e-4 -0.002,0.004 0,0.002 -0.005,0.004 -0.008,0.006 h -0.002 l -0.002,0.002 c -0.0259,0.0283 -0.0519,-0.003 -0.0254,-0.0293 6e-4,-0.002 0.002,-0.003 0.004,-0.004 0.0189,-0.005 0.0454,-9.1e-4 0.008,-0.004 0.005,-0.006 0.0152,-0.0134 0.0215,-0.0156 0.008,-0.005 0.012,-0.0131 0.0195,-0.0195 0,-5.6e-4 0.001,-10e-4 0.002,-0.002 -8.4e-4,-1.5e-4 -0.002,1.6e-4 -0.004,0 0.002,-0.003 0.003,-0.005 0.006,-0.01 0.002,-8.6e-4 0.005,-10e-4 0.008,-0.002 1.8e-4,-6.1e-4 -1.7e-4,-10e-4 0,-0.002 0.004,-0.004 0.005,-0.008 0.008,-0.0117 0.004,-0.003 0.006,-0.005 0.008,-0.008 0.004,-0.006 0.006,-0.0111 0.0137,-0.0156 10e-4,-7.5e-4 0.007,-9.6e-4 0.01,-0.002 v -0.002 h 0.002 c 0.003,-8.3e-4 0.006,-6e-4 0.01,-0.002 0.004,-9.6e-4 -0.006,-0.002 -0.008,0 0.006,-0.006 0.0202,-0.0134 0.0234,-0.0156 z m -0.0274,0.0684 c -0.001,10e-4 -0.003,5.8e-4 -0.004,0.002 -7.6e-4,10e-4 4.9e-4,0.003 0,0.004 10e-4,-2.9e-4 0.003,-9.7e-4 0.004,-0.002 9.4e-4,-9.1e-4 -1.2e-4,-0.002 0,-0.004 z"/>
        </clipPath>
    </defs>
  <g class="en">
    <g id="layer2">
      <path
              id="path1098"
              clip-path="url(#clipPath1323)"
              style="stroke:none;stroke-width:0.0907087;stroke-miterlimit:4;stroke-dasharray:none"
              transform="matrix(1.5,0,0,1.5,25,-385)"
              d="m 417.35352,270.91406 c -0.003,10e-6 -1.12071,0.005 -1.69336,0.006 -0.27667,3.4e-4 -0.82227,0.32031 -0.82227,0.32031 -1.31078,0.67277 -2.1355,1.41318 -2.37891,2.23438 -0.0752,0.25306 -0.0833,2.25314 -0.12109,6.85937 l -0.0527,6.4961 H 403.42383 394.75 c -0.003,6.5e-4 -0.006,3e-4 -0.01,0.002 -0.004,6.9e-4 -0.007,0.002 -0.01,0.002 -3.4e-4,2.3e-4 -0.003,0.002 -0.004,0 -4.4e-4,-0.001 3.2e-4,-0.003 0,-0.004 l -0.002,0.002 c -10e-4,5e-5 -0.004,3e-5 -0.006,0 0,0.002 0.007,-0.003 -0.004,0.004 -0.0113,0.007 -0.0238,0.01 -0.0351,0.01 0,4e-5 -0.002,-0.002 -0.004,-0.002 -0.002,0.002 -0.009,0.004 -0.0117,0.006 l -0.002,0.002 c -0.0197,0.011 -0.0454,0.0108 -0.0644,0.0195 -0.0166,0.008 -0.0319,0.0173 -0.0508,0.0215 -0.003,8.4e-4 -0.008,0.002 -0.0117,0.002 h -0.002 v 0.002 c -4.2e-4,7.3e-4 4.5e-4,0.003 0,0.004 l -0.002,0.002 c -0.002,0.003 -0.01,0.009 -0.0117,0.0117 -0.004,0.005 -0.01,0.009 -0.0137,0.0137 -7.9e-4,7e-4 -0.0107,5.1e-4 -0.0117,0.002 -0.005,0.0101 -0.013,0.0163 -0.0234,0.0215 -0.001,6e-4 -0.0107,0.0107 -0.0117,0.0117 l -0.004,0.0117 -0.19336,0.30078 c -0.36517,0.56906 -0.54889,1.03484 -0.54688,1.55664 0.002,0.53104 0.22115,1.08527 0.54883,1.38672 l 0.18945,0.17578 h 0.002 c 0.004,10e-4 0.007,0.007 0.0117,0.008 l 0.002,0.002 h 0.004 c 0.003,9.1e-4 0.007,0.003 0.0117,0.004 0.002,0.003 0.009,0.003 0.01,0.004 0.006,0 0.0114,0.003 0.0176,0.006 10e-4,6.3e-4 0.01,5.8e-4 0.0117,0.002 0.002,4.7e-4 0.004,0.002 0.006,0.002 -0.005,-0.002 0.007,0.003 0.006,0.002 -7.2e-4,-6.3e-4 0.003,-1.2e-4 0.004,0 h 0.0274 0.0176 l 23.17383,0.0215 23.25391,0.0234 0.85547,0.41211 c 2.13637,1.02716 3.7552,2.51449 4.62695,4.25391 0.56462,1.12672 0.86566,3.12513 0.78516,5.20117 -0.0564,1.45386 -0.14969,1.84504 -0.74024,3.10937 -0.95577,2.04604 -2.38453,3.34314 -4.23828,3.84766 -0.73999,0.20142 -2.74038,0.54099 -3.18164,0.54101 -0.20069,0 -0.3001,0.05 -0.33789,0.16993 -0.22866,0.72041 -1.56146,2.18772 -2.7793,3.05859 -1.44979,1.03673 -2.24098,1.33199 -4.58984,1.7168 -4.82234,0.79005 -7.55624,0.14 -9.95703,-2.36719 -0.82863,-0.86532 -1.40681,-1.70296 -1.91016,-2.76367 -0.30686,-0.6465 -0.38448,-0.93758 -0.55078,-2.08985 -0.23928,-1.65928 -0.2045,-1.54837 -0.50195,-1.60937 -0.75402,-0.15455 -2.30449,-0.72381 -2.84375,-1.04492 -0.34122,-0.20316 -0.89164,-0.64132 -1.22461,-0.97266 -1.59504,-1.58682 -1.80952,-3.82845 -0.63477,-6.63476 0.17802,-0.4259 0.30601,-0.79053 0.28711,-0.81055 -0.0202,-0.0202 -2.6073,0.007 -5.74805,0.0605 l -5.71093,0.0957 -0.28907,0.32422 c -0.44076,0.49383 -0.8401,1.20111 -0.84765,1.66954 -0.008,0.51197 0.32417,1.25435 0.81445,1.59413 l 0.35938,0.24805 4.13281,0.0645 4.13477,0.0644 0.45312,0.23242 c 0.54992,0.28233 1.01418,0.78893 1.0293,1.11914 0.0296,0.72573 -0.15249,1.04653 -0.84766,1.48829 l -0.45703,0.28906 -1.5625,0.0586 c -1.78042,0.0663 -1.81197,-0.0788 -2.2394,0.84068 -0.33184,0.71377 -0.20792,1.42204 0.15349,1.86831 0.33131,0.41004 0.5578,0.45546 2.41211,0.46679 l 1.26563,0.01 0.41406,0.40234 c 0.44333,0.43086 0.75678,1.00753 0.75976,1.39844 0.005,0.55626 -0.3876,1.10675 -1.02343,1.43359 -0.34829,0.17908 -0.53585,0.18493 -7.7168,0.25 l -7.29297,0.0684 c -0.005,-0.005 -0.0354,0.0111 -0.043,0.01 10e-4,-2.8e-4 -0.002,-4.9e-4 -0.004,0 -0.003,0.002 -0.007,0.004 -0.01,0.006 -0.0265,0.003 -0.008,4.2e-4 -0.008,0.002 -6.1e-4,10e-4 -0.003,-10e-4 -0.004,0 -3.6e-4,2.5e-4 -0.002,-2.9e-4 -0.002,0 -0.003,0.002 -0.004,0.006 -0.008,0.008 h -0.002 c 0.006,-0.002 -8.2e-4,-0.002 -0.008,-0.002 -0.002,5e-5 9e-5,-1.9e-4 -0.002,0 -4e-4,6e-4 -0.002,0.001 -0.002,0.002 -6.9e-4,5.3e-4 -0.001,0.001 -0.002,0.002 l -0.14648,0.18164 c -0.0917,0.11572 -0.40437,0.31886 -0.55971,0.61351 -0.44508,0.84393 -0.26591,1.88903 0.29213,2.52516 0.13217,0.15066 0.56009,0.15751 7.92773,0.14844 8.5725,-0.0103 8.06053,-0.0416 8.55078,0.54101 0.43918,0.52191 0.43797,0.52438 0.29297,6.69531 l -0.041,5.75977 0.2539,0.71289 c 0.43464,0.89521 0.95548,1.48901 2.04493,2.33203 l 0.85546,0.66211 3.66016,-0.0508 c 9.08122,-0.13471 11.01414,-0.19748 12.09766,-0.39062 6.60287,-1.17795 12.45246,-4.05402 16.52343,-8.125 3.2214,-3.2214 5.40489,-7.13678 6.60157,-11.83594 1.56159,-6.13231 1.35118,-13.26731 -0.55078,-18.6836 -2.49385,-7.10189 -7.91573,-12.61845 -15.97266,-16.2539 -1.56929,-0.70808 -3.8141,-1.56891 -5.12695,-1.96485 l -0.89453,-0.26953 -6.47266,-0.0996 c -3.55935,-0.0535 -7.23379,-0.12208 -8.16797,-0.11914 z"
              sodipodi:nodetypes="ccccccccccsccccscccccscccccccscccscccccccccccsccccccssssscsssscssccccccccccccccccscccscsccccccscccscccccscscccccccssssccccc"/>
    </g>
    <g>
      <text stroke-width="0" x="284.248131" y="202.268498" id="svg_7" font-size="24"
            font-family="Helvetica, Arial, sans-serif" text-anchor="start" xml:space="preserve"
            transform="matrix(2.829827161045131,0,0,2.829827161045131,-802.4516386279475,-485) "
            stroke="#000" font-weight="normal">Technical Support ：</text>
      <text stroke-width="0" x="542.587024" y="202.268498" id="svg_8" font-size="24"
            font-family="Helvetica, Arial, sans-serif" text-anchor="start" xml:space="preserve"
            transform="matrix(2.829827161045131,0,0,2.829827161045131,-802.4516386279475,-485) "
            stroke="#000" font-weight="normal">Smart Cloud</text>
    </g>
  </g>
</svg>
